<?xml version="1.0" standalone="no"?>
<!DOCTYPE svg PUBLIC "-//W3C//DTD SVG 20010904//EN"
 "http://www.w3.org/TR/2001/REC-SVG-20010904/DTD/svg10.dtd">
<svg version="1.0" xmlns="http://www.w3.org/2000/svg"
 width="60.000000pt" height="60.000000pt" viewBox="0 0 60.000000 60.000000"
 preserveAspectRatio="xMidYMid meet">

<g transform="translate(0.000000,60.000000) scale(0.100000,-0.100000)"
fill="#000000" stroke="none">
<path d="M117 553 c-4 -3 -7 -39 -7 -80 0 -42 -4 -73 -10 -73 -5 0 -10 15 -10
33 0 36 -25 67 -54 67 -21 0 -32 -28 -17 -43 16 -16 14 -62 -4 -77 -12 -10
-15 -36 -15 -115 0 -108 5 -135 24 -135 18 -1 45 -67 32 -80 -7 -7 72 -10 261
-10 150 0 274 3 276 8 4 7 -65 241 -77 261 -4 6 -20 11 -37 11 -22 0 -29 -5
-29 -20 0 -11 -4 -20 -10 -20 -5 0 -10 19 -10 43 0 51 -7 63 -41 72 -21 5 -32
21 -58 86 l-32 79 -88 0 c-48 0 -91 -3 -94 -7z m108 -22 l-70 -6 -3 -62 c-4
-86 -22 -80 -22 7 l0 70 83 -2 82 -2 -70 -5z m65 -50 c11 -21 3 -81 -11 -81
-5 0 -9 9 -9 20 0 11 -4 20 -10 20 -5 0 -10 -9 -10 -20 0 -17 -7 -20 -40 -20
l-40 0 0 50 0 50 55 0 c43 0 56 -4 65 -19z m114 -120 c3 -5 -4 -11 -15 -14
-23 -6 -17 -27 7 -27 8 0 14 -7 14 -16 0 -10 -6 -14 -17 -11 -10 3 -62 13
-115 23 -103 19 -128 14 -128 -26 0 -27 19 -37 95 -52 l70 -13 -59 -3 c-32 -2
-72 1 -88 7 -19 7 -38 7 -54 1 -14 -6 -41 -10 -60 -10 l-34 0 0 50 c0 37 4 50
14 50 24 0 30 21 7 27 -12 3 -21 9 -21 14 0 12 377 12 384 0z m-84 -76 c68
-14 124 -25 126 -25 2 0 4 -9 4 -21 0 -15 -5 -19 -17 -15 -10 3 -70 15 -133
27 -119 23 -137 30 -126 48 9 14 4 15 146 -14z m215 -98 c19 -62 35 -116 35
-120 0 -4 -22 -7 -50 -7 l-50 0 0 120 c0 99 3 120 15 120 10 0 26 -37 50 -113z
m-485 -1 c0 -15 -14 -35 -21 -30 -15 9 -10 34 6 34 8 0 15 -2 15 -4z m220 -3
c0 -5 -5 -15 -10 -23 -9 -13 -11 -13 -20 0 -15 22 -12 30 10 30 11 0 20 -3 20
-7z m-120 -48 c0 -15 -6 -25 -14 -25 -16 0 -25 19 -18 38 8 22 32 13 32 -13z
m220 0 c0 -15 -6 -25 -14 -25 -16 0 -25 19 -18 38 8 22 32 13 32 -13z m-98
-45 l17 -30 -39 0 -39 0 17 30 c9 16 19 30 22 30 3 0 13 -14 22 -30z m178 -20
c0 -5 -5 -10 -11 -10 -5 0 -7 5 -4 10 3 6 8 10 11 10 2 0 4 -4 4 -10z"/>
<path d="M5 50 c-3 -5 1 -10 10 -10 9 0 13 5 10 10 -3 6 -8 10 -10 10 -2 0 -7
-4 -10 -10z"/>
</g>
</svg>
