<?xml version="1.0" standalone="no"?>
<!DOCTYPE svg PUBLIC "-//W3C//DTD SVG 20010904//EN"
 "http://www.w3.org/TR/2001/REC-SVG-20010904/DTD/svg10.dtd">
<svg version="1.0" xmlns="http://www.w3.org/2000/svg"
 width="60.000000pt" height="60.000000pt" viewBox="0 0 60.000000 60.000000"
 preserveAspectRatio="xMidYMid meet">

<g transform="translate(0.000000,60.000000) scale(0.100000,-0.100000)"
fill="#000000" stroke="none">
<path d="M325 510 c-82 -49 -158 -89 -167 -89 -13 -1 -18 -12 -20 -43 -3 -39
-6 -43 -30 -46 -38 -4 -36 -22 2 -22 17 0 30 -4 30 -10 0 -5 -25 -10 -55 -10
-59 0 -65 5 -38 26 16 12 15 13 -9 14 -28 0 -28 0 -28 -70 l0 -70 68 -1 c37
-1 56 -3 42 -6 -14 -2 -35 -6 -48 -9 -62 -13 -84 -93 -37 -139 24 -24 28 -25
184 -25 154 0 161 1 187 24 21 18 28 32 28 61 0 52 -38 85 -102 86 -26 1 -38
4 -27 6 11 3 26 10 33 15 15 13 16 121 1 150 -10 18 -4 27 42 74 29 30 57 54
61 54 13 0 9 -166 -4 -195 -10 -22 -8 -30 11 -56 23 -31 25 -76 6 -180 -4 -20
-3 -39 2 -42 13 -8 109 58 123 82 17 33 11 82 -15 127 -14 24 -28 64 -32 89
-6 47 -23 73 -23 36 0 -14 -6 -21 -20 -21 -19 0 -20 7 -20 131 0 119 2 130 18
127 15 -3 17 -17 20 -101 3 -121 22 -122 22 -1 0 91 -10 124 -38 124 -9 -1
-84 -41 -167 -90z m64 -52 c-40 -37 -67 -54 -74 -48 -6 5 -30 10 -55 12 l-44
3 115 67 c107 63 114 66 118 45 2 -17 -12 -36 -60 -79z m-75 -96 c11 -25 16
-57 14 -92 l-3 -55 -82 -3 -83 -3 0 96 0 95 68 0 69 0 17 -38z m-174 -102 c0
-5 -25 -10 -55 -10 -30 0 -55 5 -55 10 0 6 25 10 55 10 30 0 55 -4 55 -10z
m360 6 c0 -3 -4 -8 -10 -11 -5 -3 -10 -1 -10 4 0 6 5 11 10 11 6 0 10 -2 10
-4z m-362 -48 c-3 -8 -26 -14 -56 -16 -42 -2 -52 0 -52 12 0 13 12 16 56 16
40 0 55 -4 52 -12z m430 -85 c-2 -31 -11 -43 -48 -71 -38 -30 -46 -32 -48 -17
-2 9 1 22 7 28 6 6 11 38 11 72 0 53 3 62 23 70 19 9 25 7 40 -17 12 -17 17
-40 15 -65z m-483 -17 c-25 -18 -13 -50 17 -43 14 4 18 3 10 -5 -14 -14 -52 0
-52 21 0 19 18 41 34 41 5 0 1 -6 -9 -14z m260 0 c-25 -18 -13 -50 17 -43 14
4 18 3 10 -5 -14 -14 -52 0 -52 21 0 19 18 41 34 41 5 0 1 -6 -9 -14z"/>
<path d="M170 345 l0 -45 75 0 c41 0 75 2 75 5 0 3 -9 24 -20 45 -20 39 -21
40 -75 40 l-55 0 0 -45z m110 6 c15 -30 14 -31 -40 -31 -47 0 -50 2 -50 25 0
22 4 25 40 25 29 0 42 -5 50 -19z"/>
<path d="M480 560 c0 -5 5 -10 11 -10 5 0 7 5 4 10 -3 6 -8 10 -11 10 -2 0 -4
-4 -4 -10z"/>
</g>
</svg>
